<?xml version="1.0" encoding="utf-8"?><svg xmlns="http://www.w3.org/2000/svg" xmlns:xlink="http://www.w3.org/1999/xlink"><symbol viewBox="0 0 139.4 44.7" id="dorohovdesign"><path d="M52.2 19.5V8.1H57c3.6 0 6.1 2.1 6.1 5.7 0 3.5-2.6 5.7-6.1 5.7h-4.8zm7.9-5.7c0-1.8-1.1-3.1-3.1-3.1h-1.9v6.2H57c2 0 3.1-1.4 3.1-3.1m4.1 0c0-3.4 2.6-5.9 6.1-5.9 3.5 0 6.1 2.4 6.1 5.9 0 3.5-2.6 5.9-6.1 5.9-3.5 0-6.1-2.4-6.1-5.9m9.2 0c0-1.9-1.2-3.3-3.1-3.3-1.9 0-3.1 1.4-3.1 3.3 0 1.8 1.2 3.3 3.1 3.3 1.9 0 3.1-1.4 3.1-3.3m11 5.7l-1.9-3.8H81v3.8h-2.9V8.1h5.7c2.5 0 3.9 1.7 3.9 3.8 0 2-1.2 3-2.3 3.4l2.3 4.2h-3.3zm.3-7.6c0-.8-.6-1.2-1.4-1.2H81v2.4h2.3c.8 0 1.4-.4 1.4-1.2m4.2 1.9c0-3.4 2.6-5.9 6.1-5.9 3.5 0 6.1 2.4 6.1 5.9 0 3.5-2.6 5.9-6.1 5.9-3.5 0-6.1-2.4-6.1-5.9m9.1 0c0-1.9-1.2-3.3-3.1-3.3-1.9 0-3.1 1.4-3.1 3.3 0 1.8 1.2 3.3 3.1 3.3 1.9 0 3.1-1.4 3.1-3.3m12.4 5.7v-4.6h-4.7v4.6h-3V8.1h3v4.3h4.7V8.1h2.9v11.4zm4.6-5.7c0-3.4 2.6-5.9 6.1-5.9 3.5 0 6.1 2.4 6.1 5.9 0 3.5-2.6 5.9-6.1 5.9-3.5 0-6.1-2.4-6.1-5.9m9.2 0c0-1.9-1.2-3.3-3.1-3.3-1.9 0-3.1 1.4-3.1 3.3 0 1.8 1.2 3.3 3.1 3.3 1.9 0 3.1-1.4 3.1-3.3m7.3 5.7l-4.3-11.4h3.3l2.8 8.2 2.8-8.2h3.3l-4.2 11.4zm-79.3 17V25.1H57c3.6 0 6.1 2.1 6.1 5.7 0 3.5-2.6 5.7-6.1 5.7h-4.8zm7.9-5.7c0-1.8-1.1-3.1-3.1-3.1h-1.9v6.2H57c2 0 3.1-1.4 3.1-3.1m4.7 5.7V25.1h8.3v2.6h-5.3v1.8H73V32h-5.2v1.9h5.3v2.6zm9.6-1.6l1.5-2.2c.8.8 2.1 1.5 3.6 1.5 1 0 1.6-.4 1.6-.9 0-1.5-6.4-.3-6.4-4.7 0-1.9 1.6-3.6 4.5-3.6 1.8 0 3.4.5 4.6 1.6l-1.6 2.1c-1-.8-2.2-1.2-3.3-1.2-.8 0-1.2.3-1.2.8 0 1.4 6.4.4 6.4 4.6 0 2.3-1.7 3.8-4.7 3.8-2.2 0-3.8-.7-5-1.8m11.5-9.8h2.9v11.3h-2.9zm4.7 5.7c0-3.6 2.8-5.9 6.1-5.9 2.5 0 4.1 1.3 4.8 2.8L99.1 29c-.4-.7-1.3-1.4-2.4-1.4-1.9 0-3.2 1.4-3.2 3.3s1.3 3.3 3.2 3.3c.8 0 1.7-.3 2.1-.7v-.9h-2.6V30h5.5v4.5c-1.2 1.3-2.9 2.2-5 2.2-3.4 0-6.1-2.3-6.1-5.9m20.9 5.7l-4.8-6.6v6.6h-2.9V25.1h3l4.6 6.3v-6.3h2.9v11.4zM17.7 0H0v44.7h17.8c15 0 24.6-8.8 24.6-22.4C42.4 8.7 32.7 0 17.7 0m-.4 35.7h-8V9.5h8c9.3 0 15.7 3.7 15.7 12.7.1 7.5-5.8 13.5-15.7 13.5"/><path d="M19.1 17H17v10.6h2c4 0 6.4-2.4 6.4-5.4 0-3.7-2.6-5.2-6.3-5.2"/></symbol><symbol viewBox="0 0 64 64" id="down"><path d="M60.533 15.733l-28.56 28.328L3.394 15.713c-.397-.394-.917-.59-1.437-.59s-1.039.196-1.436.59a2.003 2.003 0 0 0 0 2.849l29.98 29.735c.2.2.494.375.757.476.75.282 1.597.107 2.166-.456l29.981-29.735a2.003 2.003 0 0 0 0-2.849 2.044 2.044 0 0 0-2.872 0z"/></symbol><symbol viewBox="0 0 175 95" id="logotip"><path d="M82.5 39c.1-.1.1-.1.2-.1-.1.1-.1.1-.2.1zM106 27.1h-.2c0 .1.1.1.2 0zm3.5 15.7c0 .2.1.4.1.6l.2.8.1-.8h.6l.2.8.1-.8h.6l.2.8.1-.8c.1-.2.1-.4.1-.6 0-.7-.5-1.3-1.2-1.3h-.1c-.5-.1-1 .6-1 1.3zm-33.2 0c0 .2.1.4.1.6l.2.9.2-.9h.5l.2.9.2-.9h.5l.2.9.2-.9c.1-.2.1-.4.1-.6 0-.7-.6-1.4-1.2-1.4s-1.2.7-1.2 1.4zm40.2-26.6c-.1 7.7-3.8 15-5.7 25.2.5-2.7 2.6-15.6 2.4-20.9-.1-4.6-1.7-6.1-3.2-6.4-1.6.3-1.9 1.2-3 6.1-.5 1.9-1.3 3.7-2.2 5.3.4.1.7.1 1 .3.5.3.8.8.7 1.1 0 .5-.5.7-.8.6-.1 0-.3-.2-.2-.4.1-.1.2-.1.3-.1-.7.2.6.8.6-.1.1-.5-.6-1.1-1.6-1.2-.2.4-.5.8-.7 1.2.8.4 1.2 1.5.7 1.7-.4 0-.6-.1-.8-.4.1-.3.5-.3.6 0-.2-.2-.4-.1-.5.1.1-.1.4.2.6.1.4 0 .1-1.1-.7-1.4-.5.7-1 1.4-1.5 2 .1.1.1.2 0 .3-.1.1-.1.4-.4.3 0 0-.1 0-.1-.1-8.5 10.2-23.2 11.6-23.2 11.6 3.4-1.4 15.6-2.6 21.5-12.3-.3 0-1.2.2-1.7.4-.1 1.7-1.5 3.6-3.7 4.7-1.9.9-3.8 1-5.2.4-.2.1-.3.1-.5.3-.3.1-1.9 1.3-1.8 1.4.1-.1-1.6 1.6-.8 1.7.1 0 .4.1.3.1 0-.1-.1-.2-.2-.1.1-.1.3 0 .3.2-.1.2-.3.1-.5.1-.4 0-.3-.9.1-1.2.3-.4.7-.8.7-.8s1.5-1.3 1.9-1.4c.2-.1.3-.1.5-.2-.3-.1-.6-.3-.8-.6h-.1c-.6.3-3.6 2.2-3.6 2.2s-.8.4-1.3 1.2c-.5.9.2 2.1.5 1.8.2-.1.2-.6.3-.6-.3-.1-.4 0-.4.3-.1-.3.1-.6.4-.4.2.3.1.5-.2.8-.6.4-1.2-1.1-.7-2 .5-.9 1.4-1.3 1.3-1.3 0 0 3-1.8 3.6-2.2-.2-.2-.3-.4-.4-.6-1.5.8-3.6 2.1-3.6 2.1s-1 .6-1.9 1.6c-1 .9-1.2 2.4-.7 2.7.7.6 1.1-.9.5-.4.1-.1.1-.2.2-.2.2 0 .2.3.1.4-.1.3-.6.6-1 .3-.2-.1-.5-.7-.3-1.3.1-.6.5-1.1 1-1.6.9-.9 1.9-1.6 1.9-1.6s2.1-1.2 3.6-2.1c-.3-.7-.3-1.5-.1-2.3l-2.8-4 4.9 1.2c.4-.4.9-.6 1.5-.9.7-.3 1.3-.5 2-.6l2.3-4.8 1.3 5.3c.3.2.6.4.8.7 1.6-.6 3.5-1.3 3.5-1.3s.1 0 .3-.1c1.1-2.7 1.8-6 1.8-10-.1-6.4 2.7-9.9 6.3-10.3 3.7.3 6.7 4.1 6.6 10.4zm-26 14.6s.1.2.3.4c.2.2.3.2.3.2s0-.1-.2-.3c-.3-.3-.4-.3-.4-.3zm.9.9c-.2-.1-.6-.3-1.1-1.1-1 .5-1.1.9-1.1.9s.5.6 2.1.2h.1zm1.7-.7s-.7-.5-1.6-.6c.1.5 0 1 0 1.2 1.4-.3 1.6-.6 1.6-.6zm1.2.9c0-.1-.7.3-.7.3l.7.3c0 .1.1-.5 0-.6zm1.1-2.1c-.1-.1-.6-.4-.9-.8-.5.7-.6 1.6-.6 1.6s.3.1 1.5-.8zm.1-.9c0-.3-.1-.5-.1-.5v.4c0 .4.1.4.1.4v-.3zm1.3-1.1s-.3-.2-1.4.4c.3.9.1 1.4.1 1.6l.1-.1c1.3-1 1.2-1.9 1.2-1.9zm4.4-.3c-.8.3-1.9.6-2.7.9.1.3.1.6.1.9.6-.2 1.6-.4 1.8-.4.3-.5.6-1 .8-1.4zm.6-1.4c-.1 0-.2.1-.2.1s-1.9.7-3.5 1.3c.1.1.2.3.3.5.1.1.1.2.1.2.8-.3 2.1-.7 2.8-.9.2-.4.4-.8.5-1.2zm.6 3.2c-.1.1-.2.2-.3.4l.1.1s.1-.2.2-.3v-.2zM93.2 6.2c4.5-3.1 16.6-9 20.6 1.5-1-13.1-16.9-6.8-22.4-1C76.7 19.9 72 .2 80.7 6.5c-7.2-17.7-14.2 21.4 12.5-.3zM79.1 42.8c0 .2.1.4.1.6l.2.9.2-.9h.5l.2.9.2-.9h.5l.2.9.2-.9c.1-.2.1-.4.1-.6 0-.7-.6-1.4-1.3-1.4s-1.1.7-1.1 1.4zM0 88.7h110.7v-.9H0v.9zm132.4-.9v.9H175v-.9h-42.6zm1.8-10.9c-1 .9-2 1.6-3.1 2.3-1.1.6-2.1 1.2-3.2 1.7-.7 1.9-1.5 3.6-2.3 5.3-.8 1.7-1.7 3.2-2.6 4.5-.9 1.3-1.9 2.4-2.8 3.1-1 .8-1.9 1.1-2.9 1.2-.6 0-1.2-.1-1.8-.4-.5-.2-1-.6-1.3-1-.3-.4-.5-1-.5-1.7 0-1.2.3-2.3.9-3.3.6-1 1.4-1.8 2.4-2.6s2.2-1.6 3.5-2.3c1.3-.7 2.7-1.4 4.1-2.1.5-1.4 1.1-3 1.6-4.7.5-1.8 1-3.7 1.5-5.8-.8 1.4-1.6 2.6-2.5 3.7-.9 1.1-1.8 2-2.7 2.6-1 .6-1.9 1-3 1-.8 0-1.5-.1-2.1-.5-.7-.4-1.2-.9-1.7-1.5-.4-.7-.6-1.6-.7-2.6v-.6c-.3.5-.6 1.1-1 1.6-.9 1.4-2 2.6-3.1 3.6s-2.3 1.8-3.6 2.4c-1.3.6-2.5.9-3.9.9-1.6 0-2.9-.5-3.7-1.4-.9-.9-1.3-2.4-1.3-4.2 0-.8.1-1.7.2-2.6-.1.2-.2.3-.4.5-.8.9-1.7 1.7-2.7 2.2-1 .6-2.1.9-3.2 1.1-.4 1.1-1 2-1.7 2.7s-1.5 1.2-2.5 1.6c-.9.3-2 .5-3 .5-1.3 0-2.4-.2-3.3-.7-.9-.4-1.6-1.1-2.2-1.8-.5-.7-1-1.5-1.2-2.4-.2-.6-.3-1.1-.3-1.7-.8 1.2-1.7 2.2-2.8 3.1-1.1 1-2.3 1.8-3.6 2.4-1.3.6-2.6.9-3.9.9-1.6 0-2.9-.5-3.7-1.4-.9-.9-1.3-2.4-1.3-4.2 0-.6.1-1.3.1-2.1 0 .1-.1.1-.1.2-.8 1.2-1.8 2.2-2.8 3.2-1 1-2.2 1.7-3.3 2.3-1.2.6-2.3.9-3.6.9-1.3 0-2.3-.4-3-1-.7-.7-1.1-1.6-1.1-2.7 0-.7.1-1.4.3-2.1.2-.7.5-1.5.8-2.2.3-.8.6-1.5.9-2.3.3-.7.6-1.5.8-2.1.2-.7.3-1.4.3-2 0-.8-.2-1.5-.5-2s-.7-1-1.2-1.3c-.5-.4-1-.7-1.4-1.1-.6 1.5-1.2 3-1.8 4.4-.6 1.4-1.2 2.7-1.8 3.9l-1.1 2.2c-.6 1.3-1.2 2.5-1.9 3.6-1 1.6-2.2 2.8-3.4 3.7-1.2.9-2.5 1.3-3.7 1.3-1 0-1.9-.3-2.5-.9-.6-.6-1.1-1.5-1.4-2.7-.3-1.1-.5-2.5-.5-4.1 0-1.2.1-2.6.3-4 .2-1.4.4-3 .7-4.5-1.6-.3-3.2-.5-4.5-.7-1.4-.2-2.6-.3-3.8-.5-1.2 2.2-2.3 4.5-3.5 6.8-1.2 2.3-2.3 4.7-3.3 7-1.1 2.3-2.1 4.6-3 6.9-.5-.3-1-.7-1.2-1-.3-.4-.5-.7-.5-1.1-.1-.3-.1-.6-.1-.9 0-.8.2-1.8.7-3.1.4-1.2 1-2.6 1.8-4.2s1.7-3.3 2.7-5.1c1.1-1.8 2.2-3.7 3.4-5.6-1.4-.1-2.6-.2-3.6-.2s-1.9-.1-2.5-.1h-2c.4-1.1 1.1-1.8 2.1-2.3 1-.5 2.3-.7 3.7-.7.6 0 1.3 0 1.9.1l2.1.3c1.4-2.2 2.9-4.4 4.4-6.5 1.5-2.1 3-4.1 4.4-6 1.4-1.9 2.7-3.5 4-4.9 1.2-1.4 2.3-2.6 3.2-3.4.5-.5 1-.9 1.5-1.2.4-.3.8-.4 1.2-.4.4 0 .9.1 1.4.5.5.3 1 .8 1.6 1.4-.3.3-.7.9-1.2 1.9-.5 1-1 2.3-1.5 3.9s-1.1 3.3-1.7 5.2c-.6 1.9-1.1 3.9-1.6 6s-1 4.2-1.4 6.2c-.4 2.1-.7 4-1 5.9-.2 1.9-.3 3.5-.3 5s.1 2.6.5 3.4c.3.8.9 1.2 1.6 1.2 1 0 2.1-.7 3.3-2.1 1.1-1.2 2.3-3.1 3.6-5.5.2-.5.5-1 .8-1.6.5-1.1 1-2.3 1.6-3.7.5-1.4 1.1-2.9 1.7-4.6-.2-.2-.3-.4-.4-.6-.1-.2-.2-.5-.2-.8 0-.6.1-1.1.3-1.6.2-.5.4-.9.7-1.2.3-.4.5-.6.8-.8.3-.2.5-.3.6-.3.3 0 .4.1.5.3.1.2.2.4.2.6s.1.4 0 .6c0 .1-.1.4-.1.7l-.3.9c-.4-.3-.5-.2-.5 0 0 .4.2.8.6 1.2.4.4.8.7 1.4 1.1.6.4 1.1.8 1.7 1.3.5.5 1 1.1 1.4 1.8.4.7.6 1.5.6 2.5 0 .9-.2 1.7-.5 2.6-.3.9-.6 1.7-1 2.6-.4.9-.7 1.6-1 2.4-.3.7-.4 1.4-.5 2 0 .7.2 1.1.5 1.4.3.2.7.4 1.2.3.7 0 1.4-.2 2.2-.6.8-.4 1.5-.9 2.3-1.5s1.5-1.3 2.1-2.1c.7-.7 1.2-1.5 1.8-2.3.1-.2.3-.5.4-.7.3-1.3.6-2.7 1-4.1.5-1.7 1-3.4 1.7-5.2-.3-.1-.7-.1-1-.2-.3-.1-.7-.1-1-.3v-1c.3 0 .6.1 1.1.1.4.1.9.1 1.4.1.6-1.6 1.3-3.3 2-4.9.7-1.6 1.4-3 2.1-4.4.7-1.4 1.4-2.6 2.1-3.6.7-1 1.3-1.8 1.9-2.4.6-.6 1.2-.9 1.6-.9.3 0 .6.1.8.3.2.2.3.6.4.9 0 .5-.3 1.2-.7 2.2-.5 1-1 2.1-1.8 3.4-.8 1.3-1.6 2.8-2.4 4.4-.9 1.6-1.7 3.3-2.5 5H72c1.2 0 2.5 0 3.9-.1s2.7-.1 4.2-.3v1c-2.1.2-3.9.4-5.6.5-1.6.1-3.1.2-4.4.2h-.9c-.6 1.4-1.1 2.7-1.6 4.2-.5 1.4-.8 2.8-1.1 4.2-.3 1.4-.4 2.8-.4 4.2 0 1.1.1 2 .3 2.6.2.7.5 1.2 1 1.5.5.3 1.1.5 1.8.4 1.3 0 2.6-.4 3.9-1.2 1.3-.8 2.5-1.9 3.6-3.4.4-.5.8-1 1.1-1.6.1-.6.2-1.2.4-1.6.3-.6.7-1.1 1.1-1.4.1-.1.2-.1.3-.2.1-.2.2-.3.2-.5l.2.2c.1-.1.3-.1.4-.2.4-.1.6-.3.8-.4 1.1-1.3 2.2-2.6 3.1-4 .9-1.4 1.8-2.8 2.5-4.4v-.7c0-.9.1-1.7.3-2.3.2-.6.5-1 .8-1.3.3-.3.7-.4 1-.4.3 0 .5.1.7.2.1.1.2.3.2.5s-.1.5-.1.9c-.1.4-.2.9-.2 1.6 0 .9.2 1.9.5 3s.6 2.2 1 3.4c.4 1.1.7 2.4 1 3.6.3 1.2.4 2.5.5 3.9 0 .5 0 1-.1 1.5-.1.4-.1.9-.3 1.3.9-.1 1.7-.4 2.5-.9s1.6-1.2 2.3-2.1c.6-.7 1.2-1.5 1.7-2.5.2-1.1.5-2.3.9-3.5.5-1.7 1.1-3.4 1.7-5.2-.4-.1-.7-.1-1.1-.2-.3-.1-.6-.1-1-.3v-1c.3 0 .6.1 1 .1.4.1.9.1 1.4.1.6-1.6 1.3-3.3 2-4.9.7-1.6 1.4-3 2.1-4.4.7-1.4 1.4-2.6 2.1-3.6.7-1 1.3-1.8 1.9-2.4.6-.6 1.2-.9 1.6-.9.3 0 .5.1.8.3.3.2.4.6.4.9 0 .5-.3 1.2-.7 2.2-.5 1-1.1 2.1-1.8 3.4-.7 1.3-1.5 2.8-2.4 4.4-.9 1.6-1.7 3.3-2.6 5h2.1c1.2 0 2.5 0 3.9-.1s2.7-.1 4.2-.3v1c-2.1.2-3.9.4-5.6.5-1.6.1-3.1.2-4.4.2h-.8c-.6 1.4-1.1 2.7-1.6 4.2-.5 1.4-.8 2.8-1.1 4.2-.3 1.4-.4 2.8-.4 4.2 0 1.1.1 2 .3 2.6.2.7.5 1.2 1 1.5.5.3 1.1.5 1.8.4 1.3 0 2.6-.4 3.9-1.2 1.3-.8 2.5-1.9 3.6-3.4 1-1.3 2-2.9 2.9-4.7.1-.5.3-1.1.4-1.6.3-.9.6-1.8 1-2.7.3-.9.7-1.6 1.1-2.4.4-.7.7-1.3 1.1-1.7s.7-.6 1-.6c.1 0 .3 0 .5.1.3.1.5.2.8.3.3.1.5.3.8.4.2.1.3.3.3.5-.3.4-.5.9-.9 1.6-.3.7-.7 1.4-1 2.3-.3.9-.6 1.7-.9 2.6-.3.9-.5 1.7-.7 2.6-.2.8-.3 1.5-.3 2.1 0 .7.1 1.3.4 1.7.3.4.8.6 1.6.6.5 0 1.1-.2 1.8-.6.6-.4 1.3-1 1.9-1.6.7-.7 1.3-1.5 2-2.4l1.8-2.7c.1-.4.2-.9.3-1.3.1-.4.2-.9.3-1.4l.3-.9c.1-.3.3-.6.5-.9.2-.3.5-.6.8-.8.3-.2.8-.3 1.2-.3.3 0 .7.1 1.2.2 0 .5-.1 1.3-.3 2.3-.2 1.1-.5 2.3-.9 3.8s-.8 3.1-1.4 4.8c-.5 1.7-1.1 3.4-1.8 5.2 1.2-.4 2.3-1.1 3.5-1.9 1.2-.9 2.2-1.9 3.2-3.2.9-1.1 1.6-2.4 2.3-3.9 0-.1 0-.2.1-.3.4-1.8.9-3.7 1.6-5.7.7-2 1.4-4.1 2.3-6.2.9-2.1 1.8-4.1 2.8-6.1 1-2 2-3.9 3-5.6 1-1.7 2-3.3 2.9-4.6.9-1.3 1.7-2.4 2.5-3.1.8-.7 1.4-1.1 1.9-1.1.3 0 .6.1.8.4.2.3.4.6.6 1.1.1.4.3.9.3 1.4.1.5.1.9.1 1.4 0 .9-.2 1.9-.5 3.3s-.9 2.8-1.5 4.4c-.6 1.6-1.4 3.3-2.3 5-.9 1.7-1.9 3.4-3 5.2-1.1 1.7-2.3 3.3-3.6 4.9-1.3 1.5-2.6 2.9-4 4-.2 1-.4 2.1-.5 3-.1 1-.2 1.9-.2 2.8 0 1.5.2 2.6.6 3.3.4.7 1 1.1 1.9 1.1.8 0 1.5-.3 2.3-.8.8-.5 1.5-1.2 2.2-2.1.7-.9 1.4-1.8 2-2.9.1-.6.2-1.2.4-1.8.4-1.2.9-2.5 1.6-3.7s1.5-2.4 2.4-3.5c.9-1.1 1.9-2.1 3-2.9 1.1-.9 2.2-1.5 3.3-2 1.2-.5 2.3-.7 3.4-.8.6 0 1.2.1 1.7.3.5.2 1 .6 1.3 1.1.3.5.5 1.2.5 2.1 0 1.2-.3 2.3-.8 3.4s-1.3 2-2.2 2.9c-1 .9-2 1.7-3.2 2.4-1.2.7-2.4 1.2-3.8 1.7-1.3.4-2.6.7-3.9.8-.1.4-.1.8-.2 1.1v.9c0 .6.1 1.2.2 1.8.1.6.4 1.1.7 1.5.3.5.8.8 1.4 1.1.5.3 1.3.4 2.2.4 1.2 0 2.4-.3 3.6-.8 1.2-.5 2.3-1.3 3.5-2.2 1.1-.9 2.1-2 3.1-3.2s1.8-2.5 2.5-3.9l.7.5c-.8 1.7-1.7 3.3-2.8 4.7-1.1 1.4-2.3 2.6-3.5 3.6-1.3 1-2.6 1.7-4 2.3-1.4.5-2.8.8-4.2.8-1.5 0-2.8-.3-3.8-.9s-1.8-1.4-2.3-2.4c-.5-1-.7-2-.8-3.2-.2.2-.3.5-.5.7-1.1 1.6-2.3 2.8-3.5 3.7-1.2.8-2.5 1.3-3.9 1.3-1.1 0-1.9-.3-2.6-.8s-1.2-1.2-1.4-2.1c-.3-.9-.5-1.9-.5-3 0-.4 0-.8.1-1.2-.1.1-.2.3-.3.4-.3 2-1.1 3-2.1 3.9zm19.3-5.1c.8-.3 1.7-.7 2.7-1.1 1-.5 2-1.1 3-1.7 1-.6 1.9-1.4 2.7-2.1.8-.8 1.5-1.6 2-2.6.5-.9.8-1.9.8-2.8 0-.4-.1-.8-.2-1-.2-.2-.5-.3-1-.3-.7 0-1.5.2-2.3.7-.8.5-1.6 1.1-2.4 1.9s-1.5 1.7-2.2 2.7c-.7 1-1.3 2.1-1.9 3.2-.4.9-.8 2-1.2 3.1zm-11.6-5.2c1.1-1.1 2.2-2.4 3.2-3.8s2.1-2.9 3-4.4c1-1.6 1.8-3.1 2.6-4.6.8-1.5 1.5-3 2.1-4.4.6-1.4 1-2.6 1.4-3.7.3-1.1.5-1.9.5-2.6 0-.4 0-.6-.1-.7-.1-.1-.2-.2-.3-.2-.3 0-.7.4-1.2 1-.5.7-1.2 1.6-2 2.8-.8 1.2-1.5 2.6-2.4 4.2-.9 1.6-1.7 3.3-2.5 5.1-.8 1.8-1.6 3.7-2.3 5.6s-1.4 3.9-2 5.7zm-108.2-10c.5-1.9 1.1-3.8 1.7-5.7.6-1.9 1.2-3.6 1.9-5.3.6-1.6 1.2-3.1 1.8-4.5-.9.6-1.9 1.4-2.9 2.6-1.1 1.2-2.2 2.6-3.4 4.3-1.2 1.7-2.5 3.6-3.8 5.7-1.3 2.1-2.6 4.4-3.9 6.7 1.3.3 2.5.6 3.8.9 1.2.3 2.4.6 3.5.9.3-1.7.8-3.6 1.3-5.6zM88.8 77c-1.1-.2-2.1-.6-3-1.1-.9-.5-1.7-1.1-2.4-1.7-.7-.6-1.2-1.3-1.6-1.9-.5 0-.8.2-1 .6-.2.4-.3.9-.3 1.4 0 .7.1 1.4.3 2 .2.6.5 1.3.9 1.8s.9.9 1.4 1.3c.6.3 1.2.5 2 .5.3 0 .7-.1 1.1-.1.5-.1.9-.4 1.3-.8.7-.5 1-1.1 1.3-2zm.5-3.6c0-1.2-.1-2.4-.3-3.6-.2-1.2-.4-2.4-.7-3.5-.3-1.1-.5-2.2-.7-3.3-.6 1-1.2 1.9-1.8 2.9-.6.9-1.2 1.8-1.9 2.6-.6.8-1.2 1.5-1.8 2 .4.9.9 1.6 1.5 2.4.7.7 1.4 1.4 2.4 2 .9.6 1.9 1 3.1 1.2 0-.4.1-.8.1-1.2.1-.4.1-.9.1-1.5zm34.8 9.5c-1.2.6-2.3 1.3-3.3 1.9-1 .6-1.9 1.3-2.7 1.9-.8.6-1.4 1.4-1.9 2.1-.4.8-.7 1.6-.7 2.6 0 .2 0 .4.1.7.1.3.3.5.5.7.2.2.5.3.9.3s1-.3 1.7-1c.7-.6 1.6-1.7 2.5-3.2.9-1.4 1.9-3.4 2.9-6zm301.7-248.3h-38.3c-2.6 0-4.8 2.2-4.8 4.8v38.3c0 2.6 2.2 4.8 4.8 4.8h38.3c2.6 0 4.8-2.2 4.8-4.8v-38.3c0-2.6-2.2-4.8-4.8-4.8zM406.6-151c5.3 0 9.6 4.3 9.6 9.6s-4.3 9.6-9.6 9.6-9.6-4.3-9.6-9.6 4.3-9.6 9.6-9.6zm-17.9 28.7c-.7 0-1.2-.5-1.2-1.2v-20.4h5c-.2.7-.2 1.7-.2 2.4 0 7.9 6.5 14.4 14.4 14.4s14.4-6.5 14.4-14.4c0-.7 0-1.7-.2-2.4h5v20.4c0 .7-.5 1.2-1.2 1.2h-36zm37.1-32.3c0 .7-.5 1.2-1.2 1.2h-4.8c-.7 0-1.2-.5-1.2-1.2v-4.8c0-.7.5-1.2 1.2-1.2h4.8c.7 0 1.2.5 1.2 1.2v4.8zm48.7-10.8h-19.7c-2.4 0-4.3 1.9-4.3 4.3v39.3c0 2.4 1.9 4.3 4.3 4.3h39.4c2.4 0 4.3-1.9 4.3-4.3v-39.3c0-2.4-1.9-4.3-4.3-4.3h-19.7zm20.1 39.7c0 2.4-1.9 4.3-4.3 4.3h-31.6c-2.4 0-4.3-1.9-4.3-4.3v-31.6c0-2.4 1.9-4.3 4.3-4.3h31.6c2.4 0 4.3 1.9 4.3 4.3v31.6z"/><path d="M465.1-138.2c1.2 1.6 2.5 3 4.3 4 2 1.1 4.1 1.5 6.4 1.4 1-.1 1.4-.3 1.4-1.4 0-.7.1-1.4.5-2.1.3-.6.9-.8 1.5-.4.3.2.6.4.8.7.6.6 1.2 1.3 1.8 1.9.8.8 1.7 1.2 2.8 1.2h4.4c.7 0 1.1-.9.7-1.7-.3-.6-.7-1.1-1.1-1.5-.9-1.1-2-2-3-3-.9-.9-1-1.4-.2-2.4.8-1.1 1.7-2.2 2.5-3.3.8-1 1.5-2.1 1.9-3.3.3-.8 0-1.1-.8-1.3h-5.2c-.6 0-.9.3-1.1.8l-.9 2.1c-.8 1.6-1.6 3.1-2.8 4.3-.3.3-.6.6-1 .5-.6-.2-.7-1.1-.7-1.4v-5.6c-.1-.8-.3-1.2-1.1-1.3h-5c-.7 0-1 .3-1.4.7-.2.2-.3.4.2.5.8.2 1.3.7 1.4 1.5.2 1.3.2 2.7.1 4 0 .4-.1.8-.3 1.1-.2.6-.6.7-1.1.3-.5-.3-.8-.8-1.1-1.2-1.2-1.7-2.2-3.5-2.9-5.5-.2-.6-.6-.9-1.2-.9h-4.3c-.9 0-1.1.4-.8 1.2 1.2 3.6 3 7 5.3 10.1zm97-27.2h-39.4c-2.4 0-4.3 1.9-4.3 4.3v39.3c0 2.4 1.9 4.3 4.3 4.3h39.4c2.4 0 4.3-1.9 4.3-4.3v-39.3c0-2.4-2-4.3-4.3-4.3zm.4 39.7c0 2.4-1.9 4.3-4.3 4.3h-7.5v-17.5h5.3s.5-3.1.7-6.5h-6v-4.4c0-.7.9-1.5 1.7-1.5h4.3v-6.7h-5.9c-8.3 0-8.1 6.5-8.1 7.4v5.3h-3.9v6.4h3.9v17.5h-16.1c-2.4 0-4.3-1.9-4.3-4.3v-31.6c0-2.4 1.9-4.3 4.3-4.3h31.6c2.4 0 4.3 1.9 4.3 4.3v31.6zM586.4-160.7v38.6c0 2.6 2.1 4.7 4.7 4.7h38.6c2.6 0 4.7-2.1 4.7-4.7v-38.6c0-2.6-2.1-4.7-4.7-4.7H591c-2.6 0-4.6 2.1-4.6 4.7zm26.5 26.6c-2.1 0-4-1.1-4.7-2.4l-1.3 5.2c-.8 3-3.3 6-3.4 6.2-.1.2-.4.1-.5-.1-.1-.4-.7-4.2.1-7.2.4-1.5 2.5-10.4 2.5-10.4s-.6-1.2-.6-3c0-2.8 1.6-4.9 3.7-4.9 1.7 0 2.6 1.3 2.6 2.9 0 1.7-1.1 4.3-1.7 6.8-.5 2 1 3.7 3 3.7 3.6 0 6-4.6 6-10.1 0-4.2-2.8-7.3-7.9-7.3-5.8 0-9.4 4.3-9.4 9.1 0 1.7.5 2.8 1.3 3.7.4.4.4.6.3 1.1-.1.4-.3 1.2-.4 1.5-.1.5-.5.7-1 .5-2.7-1.1-3.9-4-3.9-7.3 0-5.4 4.6-11.9 13.6-11.9 7.3 0 12.1 5.3 12.1 10.9-.2 7.5-4.3 13-10.4 13zm0 0M299.9-197.4c-18.4 0-33.4 15-33.4 33.4v40.3c0 18.4 15 33.4 33.4 33.4s33.4-15 33.4-33.4V-164c0-18.4-15-33.4-33.4-33.4zm29.4 33.4v.5c-8.6 4.5-18.3 7-28.1 7.2v-11.2c2.8-.6 4.9-3.1 4.9-6.1v-8.4c0-3-2.1-5.5-4.9-6.1v-5.3c15.6.7 28.1 13.6 28.1 29.4zm-29.4-21.5c2 0 3.6 1.6 3.6 3.6v8.4c0 2-1.6 3.6-3.6 3.6s-3.6-1.6-3.6-3.6v-8.4c0-2 1.6-3.6 3.6-3.6zm-1.3-7.9v5.3c-2.8.6-4.9 3.1-4.9 6.1v8.4c0 3 2.1 5.5 4.9 6.1v11.2c-9.8-.2-19.4-2.7-28.1-7.2v-.5c0-15.8 12.5-28.7 28.1-29.4zm1.3 99.1c-16.2 0-29.4-13.2-29.4-29.4v-36.8c9.1 4.5 19.2 6.9 29.4 6.9s20.3-2.4 29.4-6.9v36.8c0 16.2-13.2 29.4-29.4 29.4zm0 0"/></symbol></svg>