<?xml version="1.0" standalone="no"?>
<!DOCTYPE svg PUBLIC "-//W3C//DTD SVG 20010904//EN"
 "http://www.w3.org/TR/2001/REC-SVG-20010904/DTD/svg10.dtd">
<svg version="1.0" xmlns="http://www.w3.org/2000/svg"
 width="260.000000pt" height="260.000000pt" viewBox="0 0 260.000000 260.000000"
 preserveAspectRatio="xMidYMid meet">
<metadata>
Created by potrace 1.11, written by Peter Selinger 2001-2013
</metadata>
<g transform="translate(0.000000,260.000000) scale(0.100000,-0.100000)"
fill="#000000" stroke="none">
<path d="M1525 1981 c-45 -12 -110 -47 -173 -95 -76 -58 -119 -72 -165 -52
-54 22 -63 85 -11 72 29 -8 30 1 5 32 -37 43 -71 21 -71 -45 0 -33 6 -50 25
-68 42 -43 109 -30 213 41 84 58 117 75 178 89 60 15 118 0 145 -37 21 -27 18
-33 -10 -19 -16 9 -28 8 -51 -4 -42 -22 -60 -63 -66 -151 -3 -42 -12 -95 -21
-118 -23 -57 -61 -116 -75 -116 -7 0 -5 5 4 13 20 15 30 77 12 70 -8 -3 -15
10 -19 36 -8 49 -16 51 -34 10 -16 -36 -53 -53 -98 -44 l-33 6 16 -38 c39 -90
35 -86 79 -78 22 3 50 7 62 8 12 1 41 20 64 42 24 22 47 39 52 37 4 -1 6 2 2
8 -11 19 6 32 23 18 15 -11 15 -11 4 3 -10 14 -9 29 9 85 25 78 38 97 62 89
24 -10 36 -56 31 -131 -3 -62 -7 -95 -21 -174 -8 -44 7 -15 23 46 44 166 51
206 48 254 -2 29 -10 63 -19 77 -9 14 -19 36 -21 50 -7 38 -22 61 -47 74 -28
15 -83 20 -122 10z m-85 -411 c0 -5 -2 -10 -4 -10 -3 0 -8 5 -11 10 -3 6 -1
10 4 10 6 0 11 -4 11 -10z m-20 -14 c0 -3 -4 -8 -10 -11 -5 -3 -10 -1 -10 4 0
6 5 11 10 11 6 0 10 -2 10 -4z m-65 -26 c3 -5 2 -10 -4 -10 -5 0 -13 5 -16 10
-3 6 -2 10 4 10 5 0 13 -4 16 -10z"/>
<path d="M1296 1462 l-19 -27 24 22 c12 12 21 24 18 27 -2 2 -13 -8 -23 -22z"/>
<path d="M1386 1465 c-22 -13 -65 -32 -97 -42 -33 -10 -59 -21 -59 -25 0 -16
154 44 195 76 31 24 5 18 -39 -9z"/>
<path d="M605 1437 c-36 -20 -104 -100 -199 -234 l-58 -82 -56 0 c-42 0 -60
-4 -76 -20 l-20 -21 44 -1 c25 -1 53 0 63 1 14 1 10 -12 -23 -66 -47 -76 -90
-169 -90 -193 0 -10 6 -25 13 -35 11 -16 22 0 87 134 l75 151 55 -6 c30 -4 58
-9 62 -13 3 -4 3 -25 -1 -47 -19 -103 6 -185 57 -185 57 0 94 40 158 170 26
52 48 97 50 99 8 9 44 -33 44 -52 0 -11 -11 -50 -24 -87 -27 -75 -25 -102 9
-120 32 -17 76 -5 129 36 l46 35 0 -28 c0 -36 9 -49 41 -62 39 -14 102 5 143
45 l34 33 12 -29 c12 -30 62 -60 99 -60 36 0 89 27 95 48 4 11 19 23 34 27 15
4 35 14 45 22 18 17 18 16 17 -22 -1 -15 32 -65 43 -66 6 0 21 -2 32 -4 32 -6
108 34 141 76 32 38 32 38 38 14 15 -61 86 -55 145 12 l40 45 -24 -73 c-24
-72 -27 -75 -81 -103 -30 -16 -66 -44 -80 -61 -40 -53 -28 -105 24 -105 45 0
93 54 141 157 15 33 33 56 50 63 14 6 43 26 63 45 42 40 48 42 41 17 -2 -10 5
-30 17 -45 32 -40 79 -37 130 9 29 27 40 32 40 20 0 -9 11 -28 25 -41 18 -19
35 -25 68 -25 78 0 144 39 197 114 38 57 27 68 -13 13 -42 -58 -90 -93 -140
-103 -26 -5 -76 14 -79 30 -8 62 -8 63 53 80 43 12 71 28 104 59 39 38 45 49
45 86 0 35 -4 43 -24 51 -15 5 -39 5 -63 -1 -51 -14 -144 -110 -163 -170 -18
-58 -45 -96 -80 -114 -26 -13 -30 -13 -45 2 -13 13 -16 30 -13 74 4 51 8 61
47 100 84 86 181 270 181 344 0 46 -16 76 -36 68 -45 -17 -163 -231 -220 -398
-33 -96 -43 -116 -86 -157 -26 -27 -52 -48 -57 -48 -5 0 4 41 20 92 16 51 29
104 29 120 0 24 -3 26 -22 19 -13 -4 -27 -21 -32 -37 -20 -64 -59 -119 -104
-143 -29 -16 -54 10 -47 50 6 36 34 109 48 127 12 15 -8 34 -31 29 -15 -2 -43
-51 -66 -117 -39 -108 -173 -189 -192 -116 -11 47 -10 63 8 131 26 96 17 89
141 93 26 1 47 7 47 13 0 6 -25 9 -70 6 -47 -3 -70 -1 -70 7 0 6 21 47 46 91
52 91 65 135 41 135 -9 0 -23 -7 -32 -16 -21 -21 -75 -116 -96 -168 -11 -27
-24 -43 -40 -46 -22 -5 -22 -7 -6 -16 16 -9 16 -13 -2 -66 -11 -31 -17 -58
-15 -61 8 -8 -62 -77 -78 -77 -9 0 -14 9 -12 28 1 15 -9 68 -22 117 -13 50
-21 97 -19 105 3 8 1 21 -4 28 -11 19 -41 -12 -41 -42 0 -31 -67 -131 -96
-145 -13 -6 -32 -27 -41 -47 -35 -73 -118 -117 -158 -84 -20 16 -19 87 0 153
25 84 23 83 158 86 24 1 36 5 32 11 -4 7 -35 9 -76 7 -38 -2 -69 0 -69 4 0 5
10 25 21 46 60 106 89 166 83 174 -20 33 -68 -19 -125 -137 -32 -67 -45 -84
-62 -84 -21 -1 -21 -1 -4 -14 17 -13 17 -16 -2 -77 -12 -34 -21 -68 -21 -75 0
-18 -77 -81 -105 -86 -48 -10 -49 1 -16 100 20 58 20 65 6 95 -8 18 -29 41
-46 51 -26 15 -29 22 -24 46 3 15 2 31 -3 34 -17 10 -42 -29 -41 -65 2 -43
-57 -172 -101 -222 -67 -77 -97 -27 -75 124 11 72 63 267 90 333 14 35 25 65
25 69 0 15 -36 25 -55 14z m-23 -74 c-16 -30 -70 -195 -77 -236 -7 -37 -8 -38
-44 -33 -73 10 -75 13 -45 65 33 56 110 166 143 204 26 29 38 30 23 0z m1718
-25 c-17 -72 -123 -263 -165 -298 -19 -16 -19 -14 9 56 40 100 68 157 105 217
41 65 63 76 51 25z m148 -226 c17 -12 0 -58 -34 -88 -28 -27 -113 -78 -119
-72 -7 7 34 83 62 114 25 28 60 53 73 54 3 0 11 -4 18 -8z m-1111 -159 c4 -45
2 -63 -6 -63 -23 0 -67 29 -80 53 -11 22 -9 28 26 75 l38 52 8 -28 c4 -15 10
-55 14 -89z m-86 -37 c10 -13 32 -29 49 -36 35 -15 38 -25 9 -40 -46 -25 -106
26 -92 78 7 28 11 27 34 -2z m569 -193 c-18 -32 -42 -66 -54 -76 -19 -17 -21
-17 -32 -2 -22 30 5 71 76 118 42 27 43 20 10 -40z"/>
<path d="M1198 1389 c-24 -13 -23 -34 1 -36 14 -1 18 5 17 23 0 13 -1 24 -1
24 0 0 -8 -5 -17 -11z"/>
<path d="M1147 1383 c-13 -12 -7 -33 8 -33 8 0 15 9 15 20 0 20 -11 26 -23 13z"/>
<path d="M1636 1374 c-9 -23 -8 -24 14 -24 11 0 20 6 20 14 0 20 -27 28 -34
10z"/>
<path d="M37 712 c-20 -2 -36 -6 -33 -10 5 -9 1634 -8 1643 1 3 4 -14 7 -38 8
-164 2 -1541 3 -1572 1z"/>
<path d="M2015 710 c-125 -10 -30 -16 255 -14 341 2 335 2 327 10 -8 8 -497
11 -582 4z"/>
</g>
</svg>
