<?xml version="1.0" encoding="utf-8"?>
<!-- Generator: Adobe Illustrator 19.0.0, SVG Export Plug-In . SVG Version: 6.00 Build 0)  -->
<svg version="1.1" id="Слой_1" xmlns="http://www.w3.org/2000/svg" xmlns:xlink="http://www.w3.org/1999/xlink" x="0px" y="0px"
	 viewBox="0 0 175 95" style="enable-background:new 0 0 175 95;" xml:space="preserve">
<path id="XMLID_3_" class="st0" d="M82.5,39c0.1-0.1,0.1-0.1,0.2-0.1C82.6,39,82.6,39,82.5,39z M106,27.1c-0.1,0-0.1,0-0.2,0
	C105.8,27.2,105.9,27.2,106,27.1z M109.5,42.8c0,0.2,0.1,0.4,0.1,0.6h0l0.2,0.8l0.1-0.8h0.6l0.2,0.8l0.1-0.8h0.6l0.2,0.8l0.1-0.8h0
	c0.1-0.2,0.1-0.4,0.1-0.6c0-0.7-0.5-1.3-1.2-1.3l-0.1,0C110,41.4,109.5,42.1,109.5,42.8z M76.3,42.8c0,0.2,0.1,0.4,0.1,0.6h0
	l0.2,0.9l0.2-0.9h0.5l0.2,0.9l0.2-0.9h0.5l0.2,0.9l0.2-0.9h0c0.1-0.2,0.1-0.4,0.1-0.6c0-0.7-0.6-1.4-1.2-1.4
	C76.9,41.4,76.3,42.1,76.3,42.8z M116.5,16.2c-0.1,7.7-3.8,15-5.7,25.2c0.5-2.7,2.6-15.6,2.4-20.9c-0.1-4.6-1.7-6.1-3.2-6.4
	c-1.6,0.3-1.9,1.2-3,6.1c-0.5,1.9-1.3,3.7-2.2,5.3c0.4,0.1,0.7,0.1,1,0.3c0.5,0.3,0.8,0.8,0.7,1.1c0,0.5-0.5,0.7-0.8,0.6
	c-0.1,0-0.3-0.2-0.2-0.4c0.1-0.1,0.2-0.1,0.3-0.1c-0.7,0.2,0.6,0.8,0.6-0.1c0.1-0.5-0.6-1.1-1.6-1.2c-0.2,0.4-0.5,0.8-0.7,1.2
	c0.8,0.4,1.2,1.5,0.7,1.7c-0.4,0-0.6-0.1-0.8-0.4c0.1-0.3,0.5-0.3,0.6,0c-0.2-0.2-0.4-0.1-0.5,0.1c0.1-0.1,0.4,0.2,0.6,0.1
	c0.4,0,0.1-1.1-0.7-1.4c-0.5,0.7-1,1.4-1.5,2c0.1,0.1,0.1,0.2,0,0.3c-0.1,0.1-0.1,0.4-0.4,0.3c0,0-0.1,0-0.1-0.1
	c-8.5,10.2-23.2,11.6-23.2,11.6c3.4-1.4,15.6-2.6,21.5-12.3c-0.3,0-1.2,0.2-1.7,0.4c-0.1,1.7-1.5,3.6-3.7,4.7
	c-1.9,0.9-3.8,1-5.2,0.4c-0.2,0.1-0.3,0.1-0.5,0.3c-0.3,0.1-1.9,1.3-1.8,1.4c0.1-0.1-1.6,1.6-0.8,1.7c0.1,0,0.4,0.1,0.3,0.1
	c0-0.1-0.1-0.2-0.2-0.1c0.1-0.1,0.3,0,0.3,0.2c-0.1,0.2-0.3,0.1-0.5,0.1c-0.4,0-0.3-0.9,0.1-1.2c0.3-0.4,0.7-0.8,0.7-0.8
	c0,0,1.5-1.3,1.9-1.4c0.2-0.1,0.3-0.1,0.5-0.2c-0.3-0.1-0.6-0.3-0.8-0.6l-0.1,0c-0.6,0.3-3.6,2.2-3.6,2.2c0,0-0.8,0.4-1.3,1.2
	c-0.5,0.9,0.2,2.1,0.5,1.8c0.2-0.1,0.2-0.6,0.3-0.6c-0.3-0.1-0.4,0-0.4,0.3c-0.1-0.3,0.1-0.6,0.4-0.4c0.2,0.3,0.1,0.5-0.2,0.8
	c-0.6,0.4-1.2-1.1-0.7-2c0.5-0.9,1.4-1.3,1.3-1.3c0,0,3-1.8,3.6-2.2h0c-0.2-0.2-0.3-0.4-0.4-0.6c-1.5,0.8-3.6,2.1-3.6,2.1
	c0,0-1,0.6-1.9,1.6c-1,0.9-1.2,2.4-0.7,2.7c0.7,0.6,1.1-0.9,0.5-0.4c0.1-0.1,0.1-0.2,0.2-0.2c0.2,0,0.2,0.3,0.1,0.4
	c-0.1,0.3-0.6,0.6-1,0.3c-0.2-0.1-0.5-0.7-0.3-1.3c0.1-0.6,0.5-1.1,1-1.6c0.9-0.9,1.9-1.6,1.9-1.6c0,0,2.1-1.2,3.6-2.1
	c-0.3-0.7-0.3-1.5-0.1-2.3l-2.8-4l4.9,1.2c0.4-0.4,0.9-0.6,1.5-0.9c0.7-0.3,1.3-0.5,2-0.6l2.3-4.8l1.3,5.3c0.3,0.2,0.6,0.4,0.8,0.7
	c1.6-0.6,3.5-1.3,3.5-1.3s0.1,0,0.3-0.1c1.1-2.7,1.8-6,1.8-10c-0.1-6.4,2.7-9.9,6.3-10.3C113.6,6.1,116.6,9.9,116.5,16.2z
	 M90.5,30.8c0,0,0.1,0.2,0.3,0.4c0.2,0.2,0.3,0.2,0.3,0.2s0-0.1-0.2-0.3C90.6,30.8,90.5,30.8,90.5,30.8z M91.4,31.7
	c-0.2-0.1-0.6-0.3-1.1-1.1h0c-1,0.5-1.1,0.9-1.1,0.9s0.5,0.6,2.1,0.2L91.4,31.7z M93.1,31c0,0-0.7-0.5-1.6-0.6c0.1,0.5,0,1,0,1.2
	C92.9,31.3,93.1,31,93.1,31z M94.3,31.9c0-0.1-0.7,0.3-0.7,0.3l0.7,0.3C94.3,32.6,94.4,32,94.3,31.9z M95.4,29.8
	c-0.1-0.1-0.6-0.4-0.9-0.8c-0.5,0.7-0.6,1.6-0.6,1.6S94.2,30.7,95.4,29.8z M95.5,28.9c0-0.3-0.1-0.5-0.1-0.5s0,0.1,0,0.4
	c0,0.4,0.1,0.4,0.1,0.4S95.5,29.2,95.5,28.9z M96.8,27.8c0,0-0.3-0.2-1.4,0.4c0.3,0.9,0.1,1.4,0.1,1.6l0.1-0.1
	C96.9,28.7,96.8,27.8,96.8,27.8z M101.2,27.5c-0.8,0.3-1.9,0.6-2.7,0.9c0.1,0.3,0.1,0.6,0.1,0.9c0.6-0.2,1.6-0.4,1.8-0.4
	C100.7,28.4,101,27.9,101.2,27.5z M101.8,26.1c-0.1,0-0.2,0.1-0.2,0.1s-1.9,0.7-3.5,1.3c0.1,0.1,0.2,0.3,0.3,0.5
	c0.1,0.1,0.1,0.2,0.1,0.2c0.8-0.3,2.1-0.7,2.8-0.9C101.5,26.9,101.7,26.5,101.8,26.1z M102.4,29.3c-0.1,0.1-0.2,0.2-0.3,0.4
	c0,0,0,0,0.1,0.1c0,0,0.1-0.2,0.2-0.3C102.4,29.4,102.4,29.3,102.4,29.3z M93.2,6.2c4.5-3.1,16.6-9,20.6,1.5
	c-1-13.1-16.9-6.8-22.4-1C76.7,19.9,72,0.2,80.7,6.5C73.5-11.2,66.5,27.9,93.2,6.2z M79.1,42.8c0,0.2,0.1,0.4,0.1,0.6h0l0.2,0.9
	l0.2-0.9h0.5l0.2,0.9l0.2-0.9h0.5l0.2,0.9l0.2-0.9h0c0.1-0.2,0.1-0.4,0.1-0.6c0-0.7-0.6-1.4-1.3-1.4S79.1,42.1,79.1,42.8z M0,88.7
	h110.7v-0.9H0V88.7z M132.4,87.8v0.9H175v-0.9H132.4z M134.2,76.9c-1,0.9-2,1.6-3.1,2.3c-1.1,0.6-2.1,1.2-3.2,1.7
	c-0.7,1.9-1.5,3.6-2.3,5.3c-0.8,1.7-1.7,3.2-2.6,4.5c-0.9,1.3-1.9,2.4-2.8,3.1c-1,0.8-1.9,1.1-2.9,1.2c-0.6,0-1.2-0.1-1.8-0.4
	c-0.5-0.2-1-0.6-1.3-1c-0.3-0.4-0.5-1-0.5-1.7c0-1.2,0.3-2.3,0.9-3.3c0.6-1,1.4-1.8,2.4-2.6c1-0.8,2.2-1.6,3.5-2.3
	c1.3-0.7,2.7-1.4,4.1-2.1c0.5-1.4,1.1-3,1.6-4.7c0.5-1.8,1-3.7,1.5-5.8c-0.8,1.4-1.6,2.6-2.5,3.7c-0.9,1.1-1.8,2-2.7,2.6
	c-1,0.6-1.9,1-3,1c-0.8,0-1.5-0.1-2.1-0.5c-0.7-0.4-1.2-0.9-1.7-1.5c-0.4-0.7-0.6-1.6-0.7-2.6c0-0.2,0-0.4,0-0.6
	c-0.3,0.5-0.6,1.1-1,1.6c-0.9,1.4-2,2.6-3.1,3.6c-1.1,1-2.3,1.8-3.6,2.4c-1.3,0.6-2.5,0.9-3.9,0.9c-1.6,0-2.9-0.5-3.7-1.4
	c-0.9-0.9-1.3-2.4-1.3-4.2c0-0.8,0.1-1.7,0.2-2.6c-0.1,0.2-0.2,0.3-0.4,0.5c-0.8,0.9-1.7,1.7-2.7,2.2c-1,0.6-2.1,0.9-3.2,1.1
	c-0.4,1.1-1,2-1.7,2.7s-1.5,1.2-2.5,1.6c-0.9,0.3-2,0.5-3,0.5c-1.3,0-2.4-0.2-3.3-0.7c-0.9-0.4-1.6-1.1-2.2-1.8
	c-0.5-0.7-1-1.5-1.2-2.4c-0.2-0.6-0.3-1.1-0.3-1.7c-0.8,1.2-1.7,2.2-2.8,3.1c-1.1,1-2.3,1.8-3.6,2.4c-1.3,0.6-2.6,0.9-3.9,0.9
	c-1.6,0-2.9-0.5-3.7-1.4c-0.9-0.9-1.3-2.4-1.3-4.2c0-0.6,0.1-1.3,0.1-2.1c0,0.1-0.1,0.1-0.1,0.2c-0.8,1.2-1.8,2.2-2.8,3.2
	c-1,1-2.2,1.7-3.3,2.3c-1.2,0.6-2.3,0.9-3.6,0.9c-1.3,0-2.3-0.4-3-1c-0.7-0.7-1.1-1.6-1.1-2.7c0-0.7,0.1-1.4,0.3-2.1
	c0.2-0.7,0.5-1.5,0.8-2.2c0.3-0.8,0.6-1.5,0.9-2.3c0.3-0.7,0.6-1.5,0.8-2.1c0.2-0.7,0.3-1.4,0.3-2c0-0.8-0.2-1.5-0.5-2
	c-0.3-0.5-0.7-1-1.2-1.3c-0.5-0.4-1-0.7-1.4-1.1c-0.6,1.5-1.2,3-1.8,4.4c-0.6,1.4-1.2,2.7-1.8,3.9c-0.4,0.8-0.8,1.6-1.1,2.2
	c-0.6,1.3-1.2,2.5-1.9,3.6c-1,1.6-2.2,2.8-3.4,3.7c-1.2,0.9-2.5,1.3-3.7,1.3c-1,0-1.9-0.3-2.5-0.9c-0.6-0.6-1.1-1.5-1.4-2.7
	c-0.3-1.1-0.5-2.5-0.5-4.1c0-1.2,0.1-2.6,0.3-4c0.2-1.4,0.4-3,0.7-4.5c-1.6-0.3-3.2-0.5-4.5-0.7c-1.4-0.2-2.6-0.3-3.8-0.5
	c-1.2,2.2-2.3,4.5-3.5,6.8c-1.2,2.3-2.3,4.7-3.3,7c-1.1,2.3-2.1,4.6-3,6.9c-0.5-0.3-1-0.7-1.2-1c-0.3-0.4-0.5-0.7-0.5-1.1
	c-0.1-0.3-0.1-0.6-0.1-0.9c0-0.8,0.2-1.8,0.7-3.1c0.4-1.2,1-2.6,1.8-4.2c0.8-1.6,1.7-3.3,2.7-5.1c1.1-1.8,2.2-3.7,3.4-5.6
	c-1.4-0.1-2.6-0.2-3.6-0.2c-1,0-1.9-0.1-2.5-0.1h-2c0.4-1.1,1.1-1.8,2.1-2.3c1-0.5,2.3-0.7,3.7-0.7c0.6,0,1.3,0,1.9,0.1
	c0.7,0.1,1.4,0.2,2.1,0.3c1.4-2.2,2.9-4.4,4.4-6.5c1.5-2.1,3-4.1,4.4-6c1.4-1.9,2.7-3.5,4-4.9c1.2-1.4,2.3-2.6,3.2-3.4
	c0.5-0.5,1-0.9,1.5-1.2c0.4-0.3,0.8-0.4,1.2-0.4c0.4,0,0.9,0.1,1.4,0.5c0.5,0.3,1,0.8,1.6,1.4c-0.3,0.3-0.7,0.9-1.2,1.9
	c-0.5,1-1,2.3-1.5,3.9c-0.5,1.6-1.1,3.3-1.7,5.2c-0.6,1.9-1.1,3.9-1.6,6c-0.5,2.1-1,4.2-1.4,6.2c-0.4,2.1-0.7,4-1,5.9
	c-0.2,1.9-0.3,3.5-0.3,5c0,1.5,0.1,2.6,0.5,3.4c0.3,0.8,0.9,1.2,1.6,1.2c1,0,2.1-0.7,3.3-2.1c1.1-1.2,2.3-3.1,3.6-5.5
	c0.2-0.5,0.5-1,0.8-1.6c0.5-1.1,1-2.3,1.6-3.7c0.5-1.4,1.1-2.9,1.7-4.6c-0.2-0.2-0.3-0.4-0.4-0.6c-0.1-0.2-0.2-0.5-0.2-0.8
	c0-0.6,0.1-1.1,0.3-1.6c0.2-0.5,0.4-0.9,0.7-1.2c0.3-0.4,0.5-0.6,0.8-0.8c0.3-0.2,0.5-0.3,0.6-0.3c0.3,0,0.4,0.1,0.5,0.3
	c0.1,0.2,0.2,0.4,0.2,0.6s0.1,0.4,0,0.6c0,0.1-0.1,0.4-0.1,0.7c-0.1,0.3-0.2,0.6-0.3,0.9C50.1,58.7,50,58.8,50,59
	c0,0.4,0.2,0.8,0.6,1.2c0.4,0.4,0.8,0.7,1.4,1.1c0.6,0.4,1.1,0.8,1.7,1.3c0.5,0.5,1,1.1,1.4,1.8c0.4,0.7,0.6,1.5,0.6,2.5
	c0,0.9-0.2,1.7-0.5,2.6c-0.3,0.9-0.6,1.7-1,2.6c-0.4,0.9-0.7,1.6-1,2.4c-0.3,0.7-0.4,1.4-0.5,2c0,0.7,0.2,1.1,0.5,1.4
	c0.3,0.2,0.7,0.4,1.2,0.3c0.7,0,1.4-0.2,2.2-0.6c0.8-0.4,1.5-0.9,2.3-1.5s1.5-1.3,2.1-2.1c0.7-0.7,1.2-1.5,1.8-2.3
	c0.1-0.2,0.3-0.5,0.4-0.7c0.3-1.3,0.6-2.7,1-4.1c0.5-1.7,1-3.4,1.7-5.2c-0.3-0.1-0.7-0.1-1-0.2c-0.3-0.1-0.7-0.1-1-0.3v-1
	c0.3,0,0.6,0.1,1.1,0.1c0.4,0.1,0.9,0.1,1.4,0.1c0.6-1.6,1.3-3.3,2-4.9c0.7-1.6,1.4-3,2.1-4.4c0.7-1.4,1.4-2.6,2.1-3.6
	c0.7-1,1.3-1.8,1.9-2.4c0.6-0.6,1.2-0.9,1.6-0.9c0.3,0,0.6,0.1,0.8,0.3c0.2,0.2,0.3,0.6,0.4,0.9c0,0.5-0.3,1.2-0.7,2.2
	c-0.5,1-1,2.1-1.8,3.4c-0.8,1.3-1.6,2.8-2.4,4.4c-0.9,1.6-1.7,3.3-2.5,5h2.1c1.2,0,2.5,0,3.9-0.1c1.4-0.1,2.7-0.1,4.2-0.3v1
	c-2.1,0.2-3.9,0.4-5.6,0.5c-1.6,0.1-3.1,0.2-4.4,0.2h-0.9c-0.6,1.4-1.1,2.7-1.6,4.2c-0.5,1.4-0.8,2.8-1.1,4.2
	c-0.3,1.4-0.4,2.8-0.4,4.2c0,1.1,0.1,2,0.3,2.6c0.2,0.7,0.5,1.2,1,1.5c0.5,0.3,1.1,0.5,1.8,0.4c1.3,0,2.6-0.4,3.9-1.2
	c1.3-0.8,2.5-1.9,3.6-3.4c0.4-0.5,0.8-1,1.1-1.6c0.1-0.6,0.2-1.2,0.4-1.6c0.3-0.6,0.7-1.1,1.1-1.4c0.1-0.1,0.2-0.1,0.3-0.2
	c0.1-0.2,0.2-0.3,0.2-0.5l0.2,0.2c0.1-0.1,0.3-0.1,0.4-0.2c0.4-0.1,0.6-0.3,0.8-0.4c1.1-1.3,2.2-2.6,3.1-4c0.9-1.4,1.8-2.8,2.5-4.4
	v-0.7c0-0.9,0.1-1.7,0.3-2.3c0.2-0.6,0.5-1,0.8-1.3c0.3-0.3,0.7-0.4,1-0.4c0.3,0,0.5,0.1,0.7,0.2c0.1,0.1,0.2,0.3,0.2,0.5
	s-0.1,0.5-0.1,0.9c-0.1,0.4-0.2,0.9-0.2,1.6c0,0.9,0.2,1.9,0.5,3c0.3,1.1,0.6,2.2,1,3.4c0.4,1.1,0.7,2.4,1,3.6
	c0.3,1.2,0.4,2.5,0.5,3.9c0,0.5,0,1-0.1,1.5c-0.1,0.4-0.1,0.9-0.3,1.3c0.9-0.1,1.7-0.4,2.5-0.9c0.8-0.5,1.6-1.2,2.3-2.1
	c0.6-0.7,1.2-1.5,1.7-2.5c0.2-1.1,0.5-2.3,0.9-3.5c0.5-1.7,1.1-3.4,1.7-5.2c-0.4-0.1-0.7-0.1-1.1-0.2c-0.3-0.1-0.6-0.1-1-0.3v-1
	c0.3,0,0.6,0.1,1,0.1c0.4,0.1,0.9,0.1,1.4,0.1c0.6-1.6,1.3-3.3,2-4.9c0.7-1.6,1.4-3,2.1-4.4c0.7-1.4,1.4-2.6,2.1-3.6
	c0.7-1,1.3-1.8,1.9-2.4c0.6-0.6,1.2-0.9,1.6-0.9c0.3,0,0.5,0.1,0.8,0.3c0.3,0.2,0.4,0.6,0.4,0.9c0,0.5-0.3,1.2-0.7,2.2
	c-0.5,1-1.1,2.1-1.8,3.4c-0.7,1.3-1.5,2.8-2.4,4.4c-0.9,1.6-1.7,3.3-2.6,5h2.1c1.2,0,2.5,0,3.9-0.1c1.4-0.1,2.7-0.1,4.2-0.3v1
	c-2.1,0.2-3.9,0.4-5.6,0.5c-1.6,0.1-3.1,0.2-4.4,0.2h-0.8c-0.6,1.4-1.1,2.7-1.6,4.2c-0.5,1.4-0.8,2.8-1.1,4.2
	c-0.3,1.4-0.4,2.8-0.4,4.2c0,1.1,0.1,2,0.3,2.6c0.2,0.7,0.5,1.2,1,1.5c0.5,0.3,1.1,0.5,1.8,0.4c1.3,0,2.6-0.4,3.9-1.2
	c1.3-0.8,2.5-1.9,3.6-3.4c1-1.3,2-2.9,2.9-4.7c0.1-0.5,0.3-1.1,0.4-1.6c0.3-0.9,0.6-1.8,1-2.7c0.3-0.9,0.7-1.6,1.1-2.4
	c0.4-0.7,0.7-1.3,1.1-1.7s0.7-0.6,1-0.6c0.1,0,0.3,0,0.5,0.1c0.3,0.1,0.5,0.2,0.8,0.3c0.3,0.1,0.5,0.3,0.8,0.4
	c0.2,0.1,0.3,0.3,0.3,0.5c-0.3,0.4-0.5,0.9-0.9,1.6c-0.3,0.7-0.7,1.4-1,2.3c-0.3,0.9-0.6,1.7-0.9,2.6c-0.3,0.9-0.5,1.7-0.7,2.6
	c-0.2,0.8-0.3,1.5-0.3,2.1c0,0.7,0.1,1.3,0.4,1.7c0.3,0.4,0.8,0.6,1.6,0.6c0.5,0,1.1-0.2,1.8-0.6c0.6-0.4,1.3-1,1.9-1.6
	c0.7-0.7,1.3-1.5,2-2.4c0.6-0.9,1.2-1.8,1.8-2.7c0.1-0.4,0.2-0.9,0.3-1.3c0.1-0.4,0.2-0.9,0.3-1.4c0.1-0.3,0.2-0.6,0.3-0.9
	c0.1-0.3,0.3-0.6,0.5-0.9c0.2-0.3,0.5-0.6,0.8-0.8c0.3-0.2,0.8-0.3,1.2-0.3c0.3,0,0.7,0.1,1.2,0.2c0,0.5-0.1,1.3-0.3,2.3
	c-0.2,1.1-0.5,2.3-0.9,3.8c-0.4,1.5-0.8,3.1-1.4,4.8c-0.5,1.7-1.1,3.4-1.8,5.2c1.2-0.4,2.3-1.1,3.5-1.9c1.2-0.9,2.2-1.9,3.2-3.2
	c0.9-1.1,1.6-2.4,2.3-3.9c0-0.1,0-0.2,0.1-0.3c0.4-1.8,0.9-3.7,1.6-5.7c0.7-2,1.4-4.1,2.3-6.2c0.9-2.1,1.8-4.1,2.8-6.1
	c1-2,2-3.9,3-5.6c1-1.7,2-3.3,2.9-4.6c0.9-1.3,1.7-2.4,2.5-3.1c0.8-0.7,1.4-1.1,1.9-1.1c0.3,0,0.6,0.1,0.8,0.4
	c0.2,0.3,0.4,0.6,0.6,1.1c0.1,0.4,0.3,0.9,0.3,1.4c0.1,0.5,0.1,0.9,0.1,1.4c0,0.9-0.2,1.9-0.5,3.3s-0.9,2.8-1.5,4.4
	c-0.6,1.6-1.4,3.3-2.3,5c-0.9,1.7-1.9,3.4-3,5.2c-1.1,1.7-2.3,3.3-3.6,4.9c-1.3,1.5-2.6,2.9-4,4c-0.2,1-0.4,2.1-0.5,3
	c-0.1,1-0.2,1.9-0.2,2.8c0,1.5,0.2,2.6,0.6,3.3c0.4,0.7,1,1.1,1.9,1.1c0.8,0,1.5-0.3,2.3-0.8c0.8-0.5,1.5-1.2,2.2-2.1
	c0.7-0.9,1.4-1.8,2-2.9c0.1-0.6,0.2-1.2,0.4-1.8c0.4-1.2,0.9-2.5,1.6-3.7s1.5-2.4,2.4-3.5c0.9-1.1,1.9-2.1,3-2.9
	c1.1-0.9,2.2-1.5,3.3-2c1.2-0.5,2.3-0.7,3.4-0.8c0.6,0,1.2,0.1,1.7,0.3c0.5,0.2,1,0.6,1.3,1.1c0.3,0.5,0.5,1.2,0.5,2.1
	c0,1.2-0.3,2.3-0.8,3.4c-0.5,1.1-1.3,2-2.2,2.9c-1,0.9-2,1.7-3.2,2.4c-1.2,0.7-2.4,1.2-3.8,1.7c-1.3,0.4-2.6,0.7-3.9,0.8
	c-0.1,0.4-0.1,0.8-0.2,1.1c0,0.4,0,0.7,0,0.9c0,0.6,0.1,1.2,0.2,1.8c0.1,0.6,0.4,1.1,0.7,1.5c0.3,0.5,0.8,0.8,1.4,1.1
	c0.5,0.3,1.3,0.4,2.2,0.4c1.2,0,2.4-0.3,3.6-0.8c1.2-0.5,2.3-1.3,3.5-2.2c1.1-0.9,2.1-2,3.1-3.2s1.8-2.5,2.5-3.9l0.7,0.5
	c-0.8,1.7-1.7,3.3-2.8,4.7c-1.1,1.4-2.3,2.6-3.5,3.6c-1.3,1-2.6,1.7-4,2.3c-1.4,0.5-2.8,0.8-4.2,0.8c-1.5,0-2.8-0.3-3.8-0.9
	s-1.8-1.4-2.3-2.4c-0.5-1-0.7-2-0.8-3.2c-0.2,0.2-0.3,0.5-0.5,0.7c-1.1,1.6-2.3,2.8-3.5,3.7c-1.2,0.8-2.5,1.3-3.9,1.3
	c-1.1,0-1.9-0.3-2.6-0.8s-1.2-1.2-1.4-2.1c-0.3-0.9-0.5-1.9-0.5-3c0-0.4,0-0.8,0.1-1.2c-0.1,0.1-0.2,0.3-0.3,0.4
	C136,75,135.2,76,134.2,76.9z M153.5,71.8c0.8-0.3,1.7-0.7,2.7-1.1c1-0.5,2-1.1,3-1.7c1-0.6,1.9-1.4,2.7-2.1c0.8-0.8,1.5-1.6,2-2.6
	c0.5-0.9,0.8-1.9,0.8-2.8c0-0.4-0.1-0.8-0.2-1c-0.2-0.2-0.5-0.3-1-0.3c-0.7,0-1.5,0.2-2.3,0.7c-0.8,0.5-1.6,1.1-2.4,1.9
	s-1.5,1.7-2.2,2.7c-0.7,1-1.3,2.1-1.9,3.2C154.3,69.6,153.9,70.7,153.5,71.8z M141.9,66.6c1.1-1.1,2.2-2.4,3.2-3.8
	c1-1.4,2.1-2.9,3-4.4c1-1.6,1.8-3.1,2.6-4.6c0.8-1.5,1.5-3,2.1-4.4c0.6-1.4,1-2.6,1.4-3.7c0.3-1.1,0.5-1.9,0.5-2.6
	c0-0.4,0-0.6-0.1-0.7c-0.1-0.1-0.2-0.2-0.3-0.2c-0.3,0-0.7,0.4-1.2,1c-0.5,0.7-1.2,1.6-2,2.8c-0.8,1.2-1.5,2.6-2.4,4.2
	c-0.9,1.6-1.7,3.3-2.5,5.1c-0.8,1.8-1.6,3.7-2.3,5.6S142.5,64.8,141.9,66.6z M33.7,56.6c0.5-1.9,1.1-3.8,1.7-5.7
	c0.6-1.9,1.2-3.6,1.9-5.3c0.6-1.6,1.2-3.1,1.8-4.5c-0.9,0.6-1.9,1.4-2.9,2.6c-1.1,1.2-2.2,2.6-3.4,4.3c-1.2,1.7-2.5,3.6-3.8,5.7
	c-1.3,2.1-2.6,4.4-3.9,6.7c1.3,0.3,2.5,0.6,3.8,0.9c1.2,0.3,2.4,0.6,3.5,0.9C32.7,60.5,33.2,58.6,33.7,56.6z M88.8,77
	c-1.1-0.2-2.1-0.6-3-1.1c-0.9-0.5-1.7-1.1-2.4-1.7c-0.7-0.6-1.2-1.3-1.6-1.9c-0.5,0-0.8,0.2-1,0.6c-0.2,0.4-0.3,0.9-0.3,1.4
	c0,0.7,0.1,1.4,0.3,2c0.2,0.6,0.5,1.3,0.9,1.8s0.9,0.9,1.4,1.3c0.6,0.3,1.2,0.5,2,0.5c0.3,0,0.7-0.1,1.1-0.1
	c0.5-0.1,0.9-0.4,1.3-0.8C88.2,78.5,88.5,77.9,88.8,77z M89.3,73.4c0-1.2-0.1-2.4-0.3-3.6c-0.2-1.2-0.4-2.4-0.7-3.5
	c-0.3-1.1-0.5-2.2-0.7-3.3c-0.6,1-1.2,1.9-1.8,2.9c-0.6,0.9-1.2,1.8-1.9,2.6c-0.6,0.8-1.2,1.5-1.8,2c0.4,0.9,0.9,1.6,1.5,2.4
	c0.7,0.7,1.4,1.4,2.4,2c0.9,0.6,1.9,1,3.1,1.2c0-0.4,0.1-0.8,0.1-1.2C89.3,74.5,89.3,74,89.3,73.4z M124.1,82.9
	c-1.2,0.6-2.3,1.3-3.3,1.9c-1,0.6-1.9,1.3-2.7,1.9c-0.8,0.6-1.4,1.4-1.9,2.1c-0.4,0.8-0.7,1.6-0.7,2.6c0,0.2,0,0.4,0.1,0.7
	c0.1,0.3,0.3,0.5,0.5,0.7c0.2,0.2,0.5,0.3,0.9,0.3c0.4,0,1-0.3,1.7-1c0.7-0.6,1.6-1.7,2.5-3.2C122.1,87.5,123.1,85.5,124.1,82.9z"/>
<g>
	<path id="XMLID_82_" class="st0" d="M425.8-165.4h-38.3c-2.6,0-4.8,2.2-4.8,4.8v38.3c0,2.6,2.2,4.8,4.8,4.8h38.3
		c2.6,0,4.8-2.2,4.8-4.8v-38.3C430.6-163.2,428.4-165.4,425.8-165.4L425.8-165.4z M406.6-151c5.3,0,9.6,4.3,9.6,9.6
		s-4.3,9.6-9.6,9.6c-5.3,0-9.6-4.3-9.6-9.6S401.3-151,406.6-151L406.6-151z M388.7-122.3c-0.7,0-1.2-0.5-1.2-1.2v-20.4h5
		c-0.2,0.7-0.2,1.7-0.2,2.4c0,7.9,6.5,14.4,14.4,14.4c7.9,0,14.4-6.5,14.4-14.4c0-0.7,0-1.7-0.2-2.4h5v20.4c0,0.7-0.5,1.2-1.2,1.2
		H388.7z M425.8-154.6c0,0.7-0.5,1.2-1.2,1.2h-4.8c-0.7,0-1.2-0.5-1.2-1.2v-4.8c0-0.7,0.5-1.2,1.2-1.2h4.8c0.7,0,1.2,0.5,1.2,1.2
		V-154.6z M425.8-154.6"/>
</g>
<g id="XMLID_81_">
	<path id="XMLID_88_" class="st0" d="M474.5-165.4h-19.7c-2.4,0-4.3,1.9-4.3,4.3v39.3c0,2.4,1.9,4.3,4.3,4.3h19.7h19.7
		c2.4,0,4.3-1.9,4.3-4.3v-39.3c0-2.4-1.9-4.3-4.3-4.3H474.5z M494.6-125.7c0,2.4-1.9,4.3-4.3,4.3h-15.8h-15.8
		c-2.4,0-4.3-1.9-4.3-4.3v-31.6c0-2.4,1.9-4.3,4.3-4.3h15.8h15.8c2.4,0,4.3,1.9,4.3,4.3V-125.7z"/>
	<path id="XMLID_91_" class="st0" d="M465.1-138.2c1.2,1.6,2.5,3,4.3,4c2,1.1,4.1,1.5,6.4,1.4c1-0.1,1.4-0.3,1.4-1.4
		c0-0.7,0.1-1.4,0.5-2.1c0.3-0.6,0.9-0.8,1.5-0.4c0.3,0.2,0.6,0.4,0.8,0.7c0.6,0.6,1.2,1.3,1.8,1.9c0.8,0.8,1.7,1.2,2.8,1.2l4.4,0
		c0.7,0,1.1-0.9,0.7-1.7c-0.3-0.6-0.7-1.1-1.1-1.5c-0.9-1.1-2-2-3-3c-0.9-0.9-1-1.4-0.2-2.4c0.8-1.1,1.7-2.2,2.5-3.3
		c0.8-1,1.5-2.1,1.9-3.3c0.3-0.8,0-1.1-0.8-1.3c-0.1,0-0.3,0-0.4,0l-4.8,0c-0.6,0-0.9,0.3-1.1,0.8c-0.3,0.7-0.6,1.4-0.9,2.1
		c-0.8,1.6-1.6,3.1-2.8,4.3c-0.3,0.3-0.6,0.6-1,0.5c-0.6-0.2-0.7-1.1-0.7-1.4l0-5.6c-0.1-0.8-0.3-1.2-1.1-1.3h-5
		c-0.7,0-1,0.3-1.4,0.7c-0.2,0.2-0.3,0.4,0.2,0.5c0.8,0.2,1.3,0.7,1.4,1.5c0.2,1.3,0.2,2.7,0.1,4c0,0.4-0.1,0.8-0.3,1.1
		c-0.2,0.6-0.6,0.7-1.1,0.3c-0.5-0.3-0.8-0.8-1.1-1.2c-1.2-1.7-2.2-3.5-2.9-5.5c-0.2-0.6-0.6-0.9-1.2-0.9c-1.4,0-2.9,0-4.3,0
		c-0.9,0-1.1,0.4-0.8,1.2C461-144.7,462.8-141.3,465.1-138.2L465.1-138.2z M465.1-138.2"/>
</g>
<path id="XMLID_94_" class="st0" d="M562.1-165.4h-19.7h-19.7c-2.4,0-4.3,1.9-4.3,4.3v39.3c0,2.4,1.9,4.3,4.3,4.3h19.7h19.7
	c2.4,0,4.3-1.9,4.3-4.3v-39.3C566.4-163.5,564.4-165.4,562.1-165.4z M562.5-125.7c0,2.4-1.9,4.3-4.3,4.3h-7.5v-17.5h5.3
	c0,0,0.5-3.1,0.7-6.5h-6v-4.4c0-0.7,0.9-1.5,1.7-1.5h4.3v-6.7h-5.9c-8.3,0-8.1,6.5-8.1,7.4v5.3h-3.9v6.4h3.9v17.5h-0.3h-15.8
	c-2.4,0-4.3-1.9-4.3-4.3v-31.6c0-2.4,1.9-4.3,4.3-4.3h15.8h15.8c2.4,0,4.3,1.9,4.3,4.3V-125.7z"/>
<g id="XMLID_97_">
	<path id="XMLID_98_" class="st1" d="M586.4-160.7v38.6c0,2.6,2.1,4.7,4.7,4.7h38.6c2.6,0,4.7-2.1,4.7-4.7v-38.6
		c0-2.6-2.1-4.7-4.7-4.7H591C588.4-165.4,586.4-163.3,586.4-160.7z M612.9-134.1c-2.1,0-4-1.1-4.7-2.4c0,0-1.1,4.4-1.3,5.2
		c-0.8,3-3.3,6-3.4,6.2c-0.1,0.2-0.4,0.1-0.5-0.1c-0.1-0.4-0.7-4.2,0.1-7.2c0.4-1.5,2.5-10.4,2.5-10.4s-0.6-1.2-0.6-3
		c0-2.8,1.6-4.9,3.7-4.9c1.7,0,2.6,1.3,2.6,2.9c0,1.7-1.1,4.3-1.7,6.8c-0.5,2,1,3.7,3,3.7c3.6,0,6-4.6,6-10.1c0-4.2-2.8-7.3-7.9-7.3
		c-5.8,0-9.4,4.3-9.4,9.1c0,1.7,0.5,2.8,1.3,3.7c0.4,0.4,0.4,0.6,0.3,1.1c-0.1,0.4-0.3,1.2-0.4,1.5c-0.1,0.5-0.5,0.7-1,0.5
		c-2.7-1.1-3.9-4-3.9-7.3c0-5.4,4.6-11.9,13.6-11.9c7.3,0,12.1,5.3,12.1,10.9C623.1-139.6,619-134.1,612.9-134.1L612.9-134.1z
		 M612.9-134.1"/>
</g>
<g id="XMLID_102_">
	<path id="XMLID_103_" class="st0" d="M299.9-197.4c-18.4,0-33.4,15-33.4,33.4v40.3c0,18.4,15,33.4,33.4,33.4
		c18.4,0,33.4-15,33.4-33.4V-164C333.3-182.4,318.3-197.4,299.9-197.4L299.9-197.4z M329.3-164v0.5c-8.6,4.5-18.3,7-28.1,7.2v-11.2
		c2.8-0.6,4.9-3.1,4.9-6.1v-8.4c0-3-2.1-5.5-4.9-6.1v-5.3C316.8-192.7,329.3-179.8,329.3-164L329.3-164z M299.9-185.5
		c2,0,3.6,1.6,3.6,3.6v8.4c0,2-1.6,3.6-3.6,3.6c-2,0-3.6-1.6-3.6-3.6v-8.4C296.3-183.9,297.9-185.5,299.9-185.5L299.9-185.5z
		 M298.6-193.4v5.3c-2.8,0.6-4.9,3.1-4.9,6.1v8.4c0,3,2.1,5.5,4.9,6.1v11.2c-9.8-0.2-19.4-2.7-28.1-7.2v-0.5
		C270.5-179.8,283-192.7,298.6-193.4L298.6-193.4z M299.9-94.3c-16.2,0-29.4-13.2-29.4-29.4v-36.8c9.1,4.5,19.2,6.9,29.4,6.9
		c10.2,0,20.3-2.4,29.4-6.9v36.8C329.3-107.5,316.1-94.3,299.9-94.3L299.9-94.3z M299.9-94.3"/>
</g>
</svg>
